# xmcd CD database file
#
# Track frame offsets:
#	150
#	90225
#	117923
#	252248
#
# Disc length: 4091 seconds
#
# Revision: 0
# Processed by: cddbd v1.5.2PL0 Copyright (c) Steve Scherf et al.
# Submitted via: CDex 1.70beta2
#
DISCID=260ff904
DTITLE=David Hickey - Journey Through The Solar System
DYEAR=2008
DGENRE=New Age
TTITLE0=Interplanetary Medium
TTITLE1=Rings Of Saturn 
TTITLE2=Retrograde 
TTITLE3=Re-Entry 
EXTD=YEAR: 2008
EXTT0=
EXTT1=
EXTT2=
EXTT3=
PLAYORDER=
